<svg xmlns="http://www.w3.org/2000/svg" width="171.882" height="140.86" viewBox="0 0 171.882 140.86">
  <g id="logo" transform="translate(-30.979 -21.33)">
    <g id="back" transform="translate(33.12 21.33)" opacity="0.3">
      <path id="Path_1" data-name="Path 1" d="M36.74,135.537s4.444,10.256,19.828,9.4c0,0,2.393,1.025-9.915,1.2a67.528,67.528,0,0,1-13.675-4.444s2.565,3.076,10.256,4.444c0,0,7.18,3.59,28.205-3.419,0,0,36.239-14.7,46.153,1.025,0,0,9.573-15.384,43.418-1.709,0,0,30.94,11.176,41.709-.736,0,0-6.495,6.89-24.1,3.814,0,0,13.675,1.538,20.512-9.572,0,0-10.427,11.175-22.393,5.759,0,0-40-19.435-58.888-5.759,0,0-12.051-12.845-52.906,3.32C64.944,138.857,48.706,148.869,36.74,135.537Z" transform="translate(-32.979 -13.637)" fill="#034078"/>
      <path id="Path_2" data-name="Path 2" d="M32.979,152.424l78.315-12.844s-1.606,10.168,6.6,10.168c0,0,8.385.357,7.136-10.168l76.352,12.844-72.427-8.741s-.893,9.454-10.794,10.168c0,0-8.3.892-10.971-9.991Z" transform="translate(-32.979 -13.01)" fill="#034078"/>
      <path id="Path_3" data-name="Path 3" d="M97.7,134.383s4.954-1.07,14.941,4.014c0,0,1.382,1.2,3.389-.937a37.575,37.575,0,0,1,8.161-2.408s-13.38-14.717-4.95-30.505c0,0,3.612-6.69,4.349-10.1a31.246,31.246,0,0,1,14.851,16.926s.735-9.1-14.517-21.14c0,0,2.81-23.548-14.316-40.941,0,0,14.316,22.478,11.1,38.4,0,0-9.633-12.309-21.273-17.527,0,0,15.119,12.443,16.591,20.337,0,0,4.014,8.964-6.957,19.668C109.07,110.166,95.958,125.552,97.7,134.383Z" transform="translate(-28.437 -19.363)" fill="#034078"/>
      <g id="dark" transform="translate(27.473 7.449)">
        <path id="Path_4" data-name="Path 4" d="M84.982,68.809s-17.26,2.007-17.795-15.52c0,0,2.007,2.81,8.9,2.542,0,0,9.967.669,9.7,10.7,0,0-4.4-6.75-10.7-6.288C75.081,60.246,82.707,61.986,84.982,68.809Z" transform="translate(-58.045 -26.53)" fill="#ffc642"/>
        <path id="Path_5" data-name="Path 5" d="M103.474,53.844S86.616,43.809,96.517,28.289c0,0,.535,3.211,6.957,7.894,0,0,8.7,6.155,2.408,15.788a17.73,17.73,0,0,0-6.021-12.443A17.682,17.682,0,0,1,103.474,53.844Z" transform="translate(-56.201 -28.289)" fill="#ffc642"/>
        <path id="Path_6" data-name="Path 6" d="M123.83,53.738s-6.957-10.035,4.014-17.26c0,0,4.683-3.211,4.683-6.69,0,0,11.1,15.654-6.556,25.153,0,0-1.221-7.8,3.88-13.982C129.851,40.96,125.7,43.3,123.83,53.738Z" transform="translate(-54.213 -28.183)" fill="#ffc642"/>
        <path id="Path_7" data-name="Path 7" d="M127.1,83.762s-3.479-9.5,7.626-14.316a10.406,10.406,0,0,0,5.753-4.281s5.619,15.788-11.373,20.471c0,0,.669-7.359,5.887-11.1C134.99,74.53,130.706,77.1,127.1,83.762Z" transform="translate(-53.866 -25.694)" fill="#ffc642"/>
        <path id="Path_8" data-name="Path 8" d="M106.363,60.571s-4.57,11.695,8.563,15.887c0,0,1.906-2.231-4.666-8.83,0,0,3.864.268,6.094,6.957,0,0,2.408-6.155-2.587-9.1C113.766,65.487,106.274,62.078,106.363,60.571Z" transform="translate(-55.343 -26.018)" fill="#ffc642"/>
        <path id="Path_9" data-name="Path 9" d="M91.931,96.879s-8.3-2.5-10.971,1.606c0,0-5.531,9.009-7.314,8.028,0,0,13.29,7.225,19.8-7.849,0,0-8.028-.179-10.794,4.46C82.654,103.124,82.744,100.626,91.931,96.879Z" transform="translate(-57.591 -23.516)" fill="#ffc642"/>
        <path id="Path_10" data-name="Path 10" d="M121.482,98.032s-1.249,11.418,9.99,12.933a5.155,5.155,0,0,1-.98-2.818s1.427-10.115-6.869-10.65c0,0,3.3,2.23,3.925,8.028C127.547,105.525,126.566,99.994,121.482,98.032Z" transform="translate(-54.228 -23.42)" fill="#ffc642"/>
        <path id="Path_11" data-name="Path 11" d="M151.943,97.17s5.708-5.619,10.7-.446c0,0,2.318,2.5,4.727,2.052,0,0-5.708,8.58-16.144.054,0,0,5.174-1.838,8.742.125C159.971,98.955,158.9,96.367,151.943,97.17Z" transform="translate(-52.132 -23.628)" fill="#ffc642"/>
        <path id="Path_12" data-name="Path 12" d="M157.729,83.176s7.4,6.957,14.361-1.963a6.28,6.28,0,0,1-4.46-.892s-4.46-3.3-9.366,1.338c0,0,4.193-.982,6.645.268C164.909,81.927,158.622,81.66,157.729,83.176Z" transform="translate(-51.674 -24.708)" fill="#ffc642"/>
        <path id="Path_13" data-name="Path 13" d="M145.479,63.211s.8-11.506,11.953-9.767c0,0,5.708-.134,7.314-2.364,0,0,1.031,15.153-18.82,15.075,0,0,2.854-7.225,10.792-8.563C156.718,57.592,151.076,56.87,145.479,63.211Z" transform="translate(-52.536 -26.685)" fill="#ffc642"/>
        <path id="Path_14" data-name="Path 14" d="M108.753,92.732S96.8,90.145,100.1,77.747a10.246,10.246,0,0,0,5.92,3.746s6.121,3.032,3.892,9.812c0,0-1.427-5.531-5.441-6.556C104.471,84.749,108.073,86.657,108.753,92.732Z" transform="translate(-55.77 -24.809)" fill="#ffc642"/>
        <path id="Path_15" data-name="Path 15" d="M58.646,83.712s7.493,11.6,18.909,2.676c0,0-5.084-3.3-9.767-1.338,0,0,2.771-3.032,9.3-.49,0,0-3.013-5.442-10.238-3.814A10.889,10.889,0,0,1,58.646,83.712Z" transform="translate(-58.646 -24.619)" fill="#ffc642"/>
      </g>
      <g id="light" transform="translate(26.135)">
        <path id="Path_16" data-name="Path 16" d="M125.583,66.935s-1.427-5.976,1.784-8.474c0,0,7.071-3.3,8.352-5.8,0,0,4.828,10.741-8.708,16.259,0,0,.268-6.537,4.459-8.945C131.47,59.978,126.564,63.189,125.583,66.935Z" transform="translate(-52.621 -19.125)" fill="#ffc642"/>
        <path id="Path_17" data-name="Path 17" d="M107.492,94.08s-6.422.8-7.938,5.619c0,0-.714,10.258-2.408,11.061,0,0,14.092-1.338,12.309-16.145,0,0-6.915,3.672-6.076,8.563C103.379,103.178,101.516,98.451,107.492,94.08Z" transform="translate(-54.599 -16.211)" fill="#ffc642"/>
        <path id="Path_18" data-name="Path 18" d="M132.562,93.756s5.084,8.653,13.826,2.5c0,0-3.3-.09-6.912-4.728a5.472,5.472,0,0,0-5.923,1.07s5.786,0,7.394,3.122C140.946,95.719,136.843,92.061,132.562,93.756Z" transform="translate(-52.107 -16.422)" fill="#ffc642"/>
        <path id="Path_19" data-name="Path 19" d="M139.65,101.055s9.723-4.638,14.717,7.314c0,0,1.606,2.766,3.657,2.408,0,0-13.38,6.78-19.713-7.76a10.624,10.624,0,0,1,10.615,4.46S147.232,102.482,139.65,101.055Z" transform="translate(-51.703 -15.783)" fill="#ffc642"/>
        <path id="Path_20" data-name="Path 20" d="M137.812,85.577s1.7-7.671,10.392-6.066a19.714,19.714,0,0,0,6.912.356s-2.408,12.667-17.3,7.315c0,0,4.728-4.344,9.1-3.287C146.91,83.9,142.451,81.3,137.812,85.577Z" transform="translate(-51.738 -17.252)" fill="#ffc642"/>
        <path id="Path_21" data-name="Path 21" d="M151.562,89.09s3.212-5.213,9.723-1.09a12.336,12.336,0,0,0,3.479.465s-4.46,6.957-13.2,2.587c0,0,3.747-3.018,6.6-1.6C158.163,89.454,156.736,87.573,151.562,89.09Z" transform="translate(-50.77 -16.751)" fill="#ffc642"/>
        <path id="Path_22" data-name="Path 22" d="M153.979,74.377s1.338-7.621,9.187-6.486c0,0,5.442.956,7.136-.561,0,0-1.07,12.131-16.323,9.009,0,0,3.581-4.867,9.277-4.905A11.052,11.052,0,0,0,153.979,74.377Z" transform="translate(-50.6 -18.093)" fill="#ffc642"/>
        <path id="Path_23" data-name="Path 23" d="M138.979,50.653s.089-7.136,6.957-8.964c0,0,4.371.134,5.531-2.275,0,0,1.246,12.666-10.972,13.2,0,0-.534-4.014,5.442-7.225C145.936,45.39,141.834,45.746,138.979,50.653Z" transform="translate(-51.656 -20.058)" fill="#ffc642"/>
        <path id="Path_24" data-name="Path 24" d="M71.443,72.982S63.683,77,59.312,67.1c0,0,13.112-1.783,12.131,4.46,0,0-3.828-3.137-6.78-1.873C64.664,69.683,70.283,70.574,71.443,72.982Z" transform="translate(-57.261 -18.127)" fill="#ffc642"/>
        <path id="Path_25" data-name="Path 25" d="M89.857,65.164S85.933,75.332,96.815,78.1c0,0,.382-3.657-3.822-7.225,0,0,3.019.356,4.715,5.263,0,0,2.5-4.371-3.39-7.493C94.317,68.643,90.482,67.126,89.857,65.164Z" transform="translate(-55.16 -18.246)" fill="#ffc642"/>
        <path id="Path_26" data-name="Path 26" d="M74.4,73.914s2.676,9.366,12.754,6.867c0,0-3.479-3.835-6.377-3.3,0,0,2.275-1.427,6.377,1.606,0,0,.268-3.39-5.173-5.173C81.977,73.914,75.644,75.52,74.4,73.914Z" transform="translate(-56.2 -17.63)" fill="#ffc642"/>
        <path id="Path_27" data-name="Path 27" d="M96.943,92.2s-11.15,7.493-18.464-5.352a9.841,9.841,0,0,0,8.387-1.338s6.419-1.784,10.076,5.173c0,0-5.657-3.568-10.076-1.248C86.866,89.435,94.981,88.9,96.943,92.2Z" transform="translate(-55.913 -16.829)" fill="#ffc642"/>
        <path id="Path_28" data-name="Path 28" d="M57.4,101.566s8.741,6.69,15.965-3.122c0,0-4.817-.714-7.983,1.159,0,0,.134-2.23,6.912-3.032,0,0-6.243-3.122-9.187,1.07C63.1,97.641,58.912,102.011,57.4,101.566Z" transform="translate(-57.396 -16.115)" fill="#ffc642"/>
        <path id="Path_29" data-name="Path 29" d="M90.406,52.424S77.918,52.335,78.9,39.58c0,0,.9,1.517,7.941,3.122,0,0,4.9.8,4.636,8.384,0,0-1.16-3.568-7.136-5.887A11.225,11.225,0,0,1,90.406,52.424Z" transform="translate(-55.887 -20.046)" fill="#ffc642"/>
        <path id="Path_30" data-name="Path 30" d="M93.108,50.58s-4.4,11.907,8.92,16.323c0,0,.553-3.656-4.808-8.83,0,0,2.31-.445,6.056,6.868,0,0,2.943-6.422-4.459-10.257C98.817,54.684,93.554,52.721,93.108,50.58Z" transform="translate(-54.932 -19.272)" fill="#ffc642"/>
        <path id="Path_31" data-name="Path 31" d="M113.587,51.268s-3.39-4.014-.446-6.69A4.377,4.377,0,0,0,114.39,41.1c-.268-2.051,5.5,7.136.032,10.526,0,0,2.145-2.564-.059-4.1C114.363,47.522,115.1,48.706,113.587,51.268Z" transform="translate(-53.558 -19.96)" fill="#ffc642"/>
        <path id="Path_32" data-name="Path 32" d="M114.023,39.7s-10.08-8.742,0-18.375a9.27,9.27,0,0,0,2.933,6.155s4.916,5.084-1.238,11.506c0,0,1.642-5.619-1.186-9.276C114.532,29.715,116.075,33.729,114.023,39.7Z" transform="translate(-53.727 -21.33)" fill="#ffc642"/>
      </g>
    </g>
    <g id="front" transform="translate(30.979 21.33)">
      <path id="Path_33" data-name="Path 33" d="M34.74,135.537s4.444,10.256,19.828,9.4c0,0,2.393,1.025-9.915,1.2a67.528,67.528,0,0,1-13.675-4.444s2.565,3.076,10.256,4.444c0,0,7.18,3.59,28.205-3.419,0,0,36.239-14.7,46.153,1.025,0,0,9.573-15.384,43.418-1.709,0,0,30.94,11.176,41.709-.736,0,0-6.495,6.89-24.1,3.814,0,0,13.675,1.538,20.512-9.572,0,0-10.427,11.175-22.393,5.759,0,0-40-19.435-58.888-5.759,0,0-12.051-12.845-52.906,3.32C62.944,138.857,46.706,148.869,34.74,135.537Z" transform="translate(-30.979 -13.637)" fill="#034078"/>
      <path id="Path_34" data-name="Path 34" d="M30.979,152.424l78.315-12.844s-1.606,10.168,6.6,10.168c0,0,8.385.357,7.136-10.168l76.352,12.844-72.427-8.741s-.893,9.454-10.794,10.168c0,0-8.3.892-10.971-9.991Z" transform="translate(-30.979 -13.01)" fill="#034078"/>
      <path id="Path_35" data-name="Path 35" d="M95.7,134.383s4.954-1.07,14.941,4.014c0,0,1.382,1.2,3.389-.937a37.575,37.575,0,0,1,8.161-2.408s-13.38-14.717-4.95-30.505c0,0,3.612-6.69,4.349-10.1a31.246,31.246,0,0,1,14.851,16.926s.735-9.1-14.517-21.14c0,0,2.81-23.548-14.316-40.941,0,0,14.316,22.478,11.1,38.4,0,0-9.633-12.309-21.273-17.527,0,0,15.119,12.443,16.591,20.337,0,0,4.014,8.964-6.957,19.668C107.07,110.166,93.958,125.552,95.7,134.383Z" transform="translate(-26.437 -19.363)" fill="#034078"/>
      <g id="dark-2" data-name="dark" transform="translate(27.473 7.449)">
        <path id="Path_36" data-name="Path 36" d="M82.982,68.809s-17.26,2.007-17.795-15.52c0,0,2.007,2.81,8.9,2.542,0,0,9.967.669,9.7,10.7,0,0-4.4-6.75-10.7-6.288C73.081,60.246,80.707,61.986,82.982,68.809Z" transform="translate(-56.045 -26.53)" fill="#ffc642"/>
        <path id="Path_37" data-name="Path 37" d="M101.474,53.844S84.616,43.809,94.517,28.289c0,0,.535,3.211,6.957,7.894,0,0,8.7,6.155,2.408,15.788a17.73,17.73,0,0,0-6.021-12.443A17.682,17.682,0,0,1,101.474,53.844Z" transform="translate(-54.201 -28.289)" fill="#ffc642"/>
        <path id="Path_38" data-name="Path 38" d="M121.83,53.738s-6.957-10.035,4.014-17.26c0,0,4.683-3.211,4.683-6.69,0,0,11.1,15.654-6.556,25.153,0,0-1.221-7.8,3.88-13.982C127.851,40.96,123.7,43.3,121.83,53.738Z" transform="translate(-52.213 -28.183)" fill="#ffc642"/>
        <path id="Path_39" data-name="Path 39" d="M125.1,83.762s-3.479-9.5,7.626-14.316a10.406,10.406,0,0,0,5.753-4.281s5.619,15.788-11.373,20.471c0,0,.669-7.359,5.887-11.1C132.99,74.53,128.706,77.1,125.1,83.762Z" transform="translate(-51.866 -25.694)" fill="#ffc642"/>
        <path id="Path_40" data-name="Path 40" d="M104.363,60.571s-4.57,11.695,8.563,15.887c0,0,1.906-2.231-4.666-8.83,0,0,3.864.268,6.094,6.957,0,0,2.408-6.155-2.587-9.1C111.766,65.487,104.274,62.078,104.363,60.571Z" transform="translate(-53.343 -26.018)" fill="#ffc642"/>
        <path id="Path_41" data-name="Path 41" d="M89.931,96.879s-8.3-2.5-10.971,1.606c0,0-5.531,9.009-7.314,8.028,0,0,13.29,7.225,19.8-7.849,0,0-8.028-.179-10.794,4.46C80.654,103.124,80.744,100.626,89.931,96.879Z" transform="translate(-55.591 -23.516)" fill="#ffc642"/>
        <path id="Path_42" data-name="Path 42" d="M119.482,98.032s-1.249,11.418,9.99,12.933a5.155,5.155,0,0,1-.98-2.818s1.427-10.115-6.869-10.65c0,0,3.3,2.23,3.925,8.028C125.547,105.525,124.566,99.994,119.482,98.032Z" transform="translate(-52.228 -23.42)" fill="#ffc642"/>
        <path id="Path_43" data-name="Path 43" d="M149.943,97.17s5.708-5.619,10.7-.446c0,0,2.318,2.5,4.727,2.052,0,0-5.708,8.58-16.144.054,0,0,5.174-1.838,8.742.125C157.971,98.955,156.9,96.367,149.943,97.17Z" transform="translate(-50.132 -23.628)" fill="#ffc642"/>
        <path id="Path_44" data-name="Path 44" d="M155.729,83.176s7.4,6.957,14.361-1.963a6.28,6.28,0,0,1-4.46-.892s-4.46-3.3-9.366,1.338c0,0,4.193-.982,6.645.268C162.909,81.927,156.622,81.66,155.729,83.176Z" transform="translate(-49.674 -24.708)" fill="#ffc642"/>
        <path id="Path_45" data-name="Path 45" d="M143.479,63.211s.8-11.506,11.953-9.767c0,0,5.708-.134,7.314-2.364,0,0,1.031,15.153-18.82,15.075,0,0,2.854-7.225,10.792-8.563C154.718,57.592,149.076,56.87,143.479,63.211Z" transform="translate(-50.536 -26.685)" fill="#ffc642"/>
        <path id="Path_46" data-name="Path 46" d="M106.753,92.732S94.8,90.145,98.1,77.747a10.246,10.246,0,0,0,5.92,3.746s6.121,3.032,3.892,9.812c0,0-1.427-5.531-5.441-6.556C102.471,84.749,106.073,86.657,106.753,92.732Z" transform="translate(-53.77 -24.809)" fill="#ffc642"/>
        <path id="Path_47" data-name="Path 47" d="M56.646,83.712s7.493,11.6,18.909,2.676c0,0-5.084-3.3-9.767-1.338,0,0,2.771-3.032,9.3-.49,0,0-3.013-5.442-10.238-3.814A10.889,10.889,0,0,1,56.646,83.712Z" transform="translate(-56.646 -24.619)" fill="#ffc642"/>
      </g>
      <g id="light-2" data-name="light" transform="translate(26.135)" opacity="0.75">
        <path id="Path_48" data-name="Path 48" d="M123.583,66.935s-1.427-5.976,1.784-8.474c0,0,7.071-3.3,8.352-5.8,0,0,4.828,10.741-8.708,16.259,0,0,.268-6.537,4.459-8.945C129.47,59.978,124.564,63.189,123.583,66.935Z" transform="translate(-50.621 -19.125)" fill="#ffc642"/>
        <path id="Path_49" data-name="Path 49" d="M105.492,94.08s-6.422.8-7.938,5.619c0,0-.714,10.258-2.408,11.061,0,0,14.092-1.338,12.309-16.145,0,0-6.915,3.672-6.076,8.563C101.379,103.178,99.516,98.451,105.492,94.08Z" transform="translate(-52.599 -16.211)" fill="#ffc642"/>
        <path id="Path_50" data-name="Path 50" d="M130.562,93.756s5.084,8.653,13.826,2.5c0,0-3.3-.09-6.912-4.728a5.472,5.472,0,0,0-5.923,1.07s5.786,0,7.394,3.122C138.946,95.719,134.843,92.061,130.562,93.756Z" transform="translate(-50.107 -16.422)" fill="#ffc642"/>
        <path id="Path_51" data-name="Path 51" d="M137.65,101.055s9.723-4.638,14.717,7.314c0,0,1.606,2.766,3.657,2.408,0,0-13.38,6.78-19.713-7.76a10.624,10.624,0,0,1,10.615,4.46S145.232,102.482,137.65,101.055Z" transform="translate(-49.703 -15.783)" fill="#ffc642"/>
        <path id="Path_52" data-name="Path 52" d="M135.812,85.577s1.7-7.671,10.392-6.066a19.714,19.714,0,0,0,6.912.356s-2.408,12.667-17.3,7.315c0,0,4.728-4.344,9.1-3.287C144.91,83.9,140.451,81.3,135.812,85.577Z" transform="translate(-49.738 -17.252)" fill="#ffc642"/>
        <path id="Path_53" data-name="Path 53" d="M149.562,89.09s3.212-5.213,9.723-1.09a12.336,12.336,0,0,0,3.479.465s-4.46,6.957-13.2,2.587c0,0,3.747-3.018,6.6-1.6C156.163,89.454,154.736,87.573,149.562,89.09Z" transform="translate(-48.77 -16.751)" fill="#ffc642"/>
        <path id="Path_54" data-name="Path 54" d="M151.979,74.377s1.338-7.621,9.187-6.486c0,0,5.442.956,7.136-.561,0,0-1.07,12.131-16.323,9.009,0,0,3.581-4.867,9.277-4.905A11.052,11.052,0,0,0,151.979,74.377Z" transform="translate(-48.6 -18.093)" fill="#ffc642"/>
        <path id="Path_55" data-name="Path 55" d="M136.979,50.653s.089-7.136,6.957-8.964c0,0,4.371.134,5.531-2.275,0,0,1.246,12.666-10.972,13.2,0,0-.534-4.014,5.442-7.225C143.936,45.39,139.834,45.746,136.979,50.653Z" transform="translate(-49.656 -20.058)" fill="#ffc642"/>
        <path id="Path_56" data-name="Path 56" d="M69.443,72.982S61.683,77,57.312,67.1c0,0,13.112-1.783,12.131,4.46,0,0-3.828-3.137-6.78-1.873C62.664,69.683,68.283,70.574,69.443,72.982Z" transform="translate(-55.261 -18.127)" fill="#ffc642"/>
        <path id="Path_57" data-name="Path 57" d="M87.857,65.164S83.933,75.332,94.815,78.1c0,0,.382-3.657-3.822-7.225,0,0,3.019.356,4.715,5.263,0,0,2.5-4.371-3.39-7.493C92.317,68.643,88.482,67.126,87.857,65.164Z" transform="translate(-53.16 -18.246)" fill="#ffc642"/>
        <path id="Path_58" data-name="Path 58" d="M72.4,73.914s2.676,9.366,12.754,6.867c0,0-3.479-3.835-6.377-3.3,0,0,2.275-1.427,6.377,1.606,0,0,.268-3.39-5.173-5.173C79.977,73.914,73.644,75.52,72.4,73.914Z" transform="translate(-54.2 -17.63)" fill="#ffc642"/>
        <path id="Path_59" data-name="Path 59" d="M94.943,92.2s-11.15,7.493-18.464-5.352a9.841,9.841,0,0,0,8.387-1.338s6.419-1.784,10.076,5.173c0,0-5.657-3.568-10.076-1.248C84.866,89.435,92.981,88.9,94.943,92.2Z" transform="translate(-53.913 -16.829)" fill="#ffc642"/>
        <path id="Path_60" data-name="Path 60" d="M55.4,101.566s8.741,6.69,15.965-3.122c0,0-4.817-.714-7.983,1.159,0,0,.134-2.23,6.912-3.032,0,0-6.243-3.122-9.187,1.07C61.1,97.641,56.912,102.011,55.4,101.566Z" transform="translate(-55.396 -16.115)" fill="#ffc642"/>
        <path id="Path_61" data-name="Path 61" d="M88.406,52.424S75.918,52.335,76.9,39.58c0,0,.9,1.517,7.941,3.122,0,0,4.9.8,4.636,8.384,0,0-1.16-3.568-7.136-5.887A11.225,11.225,0,0,1,88.406,52.424Z" transform="translate(-53.887 -20.046)" fill="#ffc642"/>
        <path id="Path_62" data-name="Path 62" d="M91.108,50.58s-4.4,11.907,8.92,16.323c0,0,.553-3.656-4.808-8.83,0,0,2.31-.445,6.056,6.868,0,0,2.943-6.422-4.459-10.257C96.817,54.684,91.554,52.721,91.108,50.58Z" transform="translate(-52.932 -19.272)" fill="#ffc642"/>
        <path id="Path_63" data-name="Path 63" d="M111.587,51.268s-3.39-4.014-.446-6.69A4.377,4.377,0,0,0,112.39,41.1c-.268-2.051,5.5,7.136.032,10.526,0,0,2.145-2.564-.059-4.1C112.363,47.522,113.1,48.706,111.587,51.268Z" transform="translate(-51.558 -19.96)" fill="#ffc642"/>
        <path id="Path_64" data-name="Path 64" d="M112.023,39.7s-10.08-8.742,0-18.375a9.27,9.27,0,0,0,2.933,6.155s4.916,5.084-1.238,11.506c0,0,1.642-5.619-1.186-9.276C112.532,29.715,114.075,33.729,112.023,39.7Z" transform="translate(-51.727 -21.33)" fill="#ffc642"/>
      </g>
    </g>
  </g>
</svg>
